<svg height="468pt" viewBox="0 -10 468.0094 468" width="468pt" xmlns="http://www.w3.org/2000/svg"><path d="m468.003906 7.75c.0625-2.0625-.726562-4.058594-2.179687-5.523438-1.453125-1.464843-3.441407-2.2656245-5.503907-2.2187495h-452.632812c-2.0625-.046875-4.050781.7539065-5.503906 2.2187495-1.453125 1.464844-2.2421878 3.460938-2.17968775 5.523438v361.1875c-.07031245 2.09375.70312475 4.128906 2.14843775 5.648438 1.445312 1.519531 3.4375 2.390624 5.535156 2.421874h155.765625l-15.511719 55h-27.46875c-4.417968 0-8 3.582032-8 8 0 4.417969 3.582032 8 8 8h227.066406c4.417969 0 8-3.582031 8-8 0-4.417968-3.582031-8-8-8h-27.46875l-15.511718-55h155.761718c2.097657-.03125 4.09375-.902343 5.539063-2.421874 1.445313-1.519532 2.21875-3.554688 2.144531-5.648438zm-452 8.257812h436v270h-436zm287.449219 416h-138.902344l15.515625-55h107.871094zm148.550781-71h-436v-59h436zm0 0"/><path d="m330.003906 105.277344v-22.914063c-.074218-3.152343-1.957031-5.984375-4.839844-7.269531l-87.722656-40.320312c-2.140625-.976563-4.597656-.976563-6.734375 0l-87.839843 40.320312c-2.886719 1.285156-4.777344 4.113281-4.863282 7.269531v23.082031c-41 10.570313-64.070312 27.03125-64.070312 46.664063 0 22.347656 29.070312 37.535156 64.070312 46.613281v24.929688c.074219 3.152344 1.960938 5.980468 4.839844 7.265625l87.726562 40.324219c1.0625.480468 2.21875.730468 3.386719.730468 1.164063 0 2.3125-.25 3.367188-.730468l87.832031-40.324219c2.882812-1.285157 4.769531-4.113281 4.847656-7.265625v-24.902344c8.714844-2.265625 17.285156-5.046875 25.671875-8.328125 31.589844-12.859375 38.3125-27.933594 38.3125-38.3125 0-19.828125-22.984375-36.355469-63.984375-46.832031zm-96-54.433594 68.550782 31.542969-68.550782 31.75-68.546875-31.75zm-8 200.644531-30.082031-13.84375c1.949219.316407 3.945313-.117187 5.585937-1.207031l24.496094-16.066406zm-21-36.558593v-28.324219l21.59375 14.164062zm-3.5-49.824219c-2.472656-1.609375-5.625-1.746094-8.230468-.355469-2.601563 1.394531-4.238282 4.09375-4.269532 7.046875v19.53125c-12-1.265625-24-3.046875-35-5.285156v-91.160157l72 33.183594v53.097656zm-83.78125 10.238281c-17.289062-7.140625-27.703125-15.828125-27.703125-23.230469 0-8.742187 14.980469-21.011719 47.980469-30.113281v60.21875c-6.867188-1.945312-13.636719-4.242188-20.273438-6.875zm36.28125 26.980469c12 2.25 24 3.933593 35 5.089843v22.332032c-.039062 2.316406.9375 4.53125 2.679688 6.058594l-37.679688-17.277344zm160 16.199219-72 32.964843v-41.613281l3.6875-2.414062c2.253906-1.480469 3.609375-3.996094 3.609375-6.691407 0-2.695312-1.355469-5.210937-3.609375-6.6875l-3.6875-2.417969v-63.601562l72-33.179688v91.164063c-14.972656 3.007813-30.121094 5.089844-45.355468 6.226563-4.421876.332031-7.75 4.167968-7.449219 8.589843.296875 4.15625 3.753906 7.378907 7.921875 7.386719.203125 0 .574218-.007812.78125-.023438 14.800781-1.132812 29.523437-3.09375 44.101562-5.878906zm35.636719-42.917969c-6.421875 2.554687-12.976563 4.761719-19.636719 6.605469v-60.367188c25 6.988281 47.984375 18.324219 47.984375 30.265625 0 7.511719-10.65625 16.296875-28.347656 23.496094zm0 0"/></svg>